<?xml version="1.0" encoding="utf-8"?>
<!-- Generator: Adobe Illustrator 24.3.0, SVG Export Plug-In . SVG Version: 6.00 Build 0)  -->
<svg version="1.1" id="Layer_1" xmlns="http://www.w3.org/2000/svg" xmlns:xlink="http://www.w3.org/1999/xlink" x="0px" y="0px"
	 viewBox="0 0 64 64" style="enable-background:new 0 0 64 64;" xml:space="preserve">
<style type="text/css">
	.st0{fill:#FFFFFF;}
</style>
<path class="st0" d="M48.4,0c-0.4,0-0.8,0.2-1.1,0.4L42.8,4c-0.6-1.3-2.1-2-3.5-1.7c-1.3,0.4-2.2,1.6-2.2,2.9l-3.6,2.4
	c-1,0.6-1.5,1.7-1.3,2.8l-14.4,3.9C15.9,12.9,13.5,12,11,12C4.9,12,0,16.9,0,23s4.9,11,11,11c0.1,0,0.3,0,0.4,0l9.5,12h-2.3
	c-0.8,0-1.4,0.4-1.8,1.1L15.4,50H7c-2.8,0-5,2.2-5,5v4c0,1.7,1.3,3,3,3h50c1.7,0,3-1.3,3-3v-4c0-2.8-2.2-5-5-5h-8.4l-1.4-2.9
	c-0.3-0.7-1-1.1-1.8-1.1h-3.9L21.6,25.9c0.2-0.8,0.4-1.6,0.4-2.4l12.8-3.4c0.4,1,1.4,1.7,2.6,1.8l4.3,0.3c0.5,0.9,1.5,1.5,2.6,1.5
	c0.3,0,0.5,0,0.8-0.1c1.4-0.4,2.3-1.8,2.2-3.2l5.7,0.8c0.1,0,0.2,0,0.3,0c0.4,0,0.9-0.2,1.2-0.4l5.1-4c0.6-0.5,0.9-1.3,0.7-2.1
	l-0.5-1.9c-0.2-0.6-0.6-1.1-1.2-1.3c-0.6-0.2-1.2-0.2-1.8,0.1l-4.7,2.8l-6.8-1.8l-0.2-0.8l5-5l5.5,0.1c0.6,0,1.2-0.3,1.6-0.8
	c0.4-0.5,0.5-1.1,0.4-1.8l-0.5-1.9C56.7,1.6,56,1.1,55.2,1L48.8,0C48.7,0,48.5,0,48.4,0z M48.5,2L55,2.9l0.5,1.9L50,4.8
	c-0.5,0-1.1,0.2-1.4,0.6l-4.2,4.2L43.4,6L48.5,2z M40,4.2c0.4,0,0.8,0.3,1,0.7l1.3,4.8l0.5,2v0l1.3,4.7l0.6,2.4v0l0.4,1.6
	c0.1,0.5-0.2,1.1-0.7,1.2c-0.5,0.1-1.1-0.2-1.2-0.7L39.1,5.5c-0.1-0.5,0.2-1.1,0.7-1.2C39.9,4.2,40,4.2,40,4.2z M37.5,7.3l3.4,12.8
	l-3.5-0.2c-0.4,0-0.8-0.3-0.9-0.7l-0.1-0.5c0,0,0,0,0,0l-2.1-7.7v0l-0.1-0.5c-0.1-0.4,0.1-0.9,0.4-1.1L37.5,7.3z M32.6,12.4l1.6,5.8
	l-12.3,3.3c-0.3-2.1-1.2-4-2.5-5.6L32.6,12.4z M57.7,13.2l0.5,1.9l-5.1,4l-6.5-0.9l-0.9-3.5l5.7,1.5c0.5,0.1,1.1,0.1,1.5-0.2
	L57.7,13.2z M11,14c1.5,0,2.9,0.4,4.1,1c0.8,0.4,1.5,0.9,2.1,1.5c1.5,1.4,2.5,3.3,2.7,5.5c0,0.3,0.1,0.7,0.1,1c0,0.3,0,0.6-0.1,0.9
	c0,0.1,0,0.1,0,0.2c-0.1,0.8-0.3,1.5-0.6,2.3c-1.2,2.9-3.8,5.1-7,5.6C11.9,32,11.4,32,11,32c-0.4,0-0.8,0-1.2-0.1
	C5.4,31.3,2,27.5,2,23C2,18,6,14,11,14z M11,18c-2.8,0-5,2.2-5,5s2.2,5,5,5s5-2.2,5-5S13.8,18,11,18z M11,20c1.7,0,3,1.3,3,3
	s-1.3,3-3,3s-3-1.3-3-3S9.3,20,11,20z M20.8,28.1L34.9,46H23.5l-9.8-12.3C16.8,32.9,19.3,30.8,20.8,28.1z M18.6,48H23h14h4.4l1,2
	H17.6L18.6,48z M7,52h7.4h31.2H53c1.7,0,3,1.3,3,3v4c0,0.6-0.4,1-1,1H5c-0.6,0-1-0.4-1-1v-4C4,53.3,5.3,52,7,52z M8,54
	c-0.6,0-1,0.4-1,1v2c0,0.6,0.4,1,1,1s1-0.4,1-1v-2C9,54.4,8.6,54,8,54z M13,54c-0.6,0-1,0.4-1,1v2c0,0.6,0.4,1,1,1s1-0.4,1-1v-2
	C14,54.4,13.6,54,13,54z M18,54c-0.6,0-1,0.4-1,1v2c0,0.6,0.4,1,1,1s1-0.4,1-1v-2C19,54.4,18.6,54,18,54z M23,54c-0.6,0-1,0.4-1,1v2
	c0,0.6,0.4,1,1,1s1-0.4,1-1v-2C24,54.4,23.6,54,23,54z M28,54c-0.6,0-1,0.4-1,1v2c0,0.6,0.4,1,1,1s1-0.4,1-1v-2
	C29,54.4,28.6,54,28,54z M33,54c-0.6,0-1,0.4-1,1v2c0,0.6,0.4,1,1,1s1-0.4,1-1v-2C34,54.4,33.6,54,33,54z M38,54c-0.6,0-1,0.4-1,1v2
	c0,0.6,0.4,1,1,1s1-0.4,1-1v-2C39,54.4,38.6,54,38,54z M43,54c-0.6,0-1,0.4-1,1v2c0,0.6,0.4,1,1,1s1-0.4,1-1v-2
	C44,54.4,43.6,54,43,54z M48,54c-0.6,0-1,0.4-1,1v2c0,0.6,0.4,1,1,1s1-0.4,1-1v-2C49,54.4,48.6,54,48,54z M53,54c-0.6,0-1,0.4-1,1v2
	c0,0.6,0.4,1,1,1s1-0.4,1-1v-2C54,54.4,53.6,54,53,54z"/>
</svg>
