<?xml version="1.0" encoding="utf-8"?>
<!-- Generator: Adobe Illustrator 24.3.0, SVG Export Plug-In . SVG Version: 6.00 Build 0)  -->
<svg version="1.1" id="Layer_1" xmlns="http://www.w3.org/2000/svg" xmlns:xlink="http://www.w3.org/1999/xlink" x="0px" y="0px"
	 viewBox="0 0 64 64" style="enable-background:new 0 0 64 64;" xml:space="preserve">
<style type="text/css">
	.st0{fill:#FFFFFF;}
</style>
<path class="st0" d="M31,2C21.8,2,13.6,6.3,8.3,13c-0.1,0-0.1,0.1-0.1,0.2c0,0,0,0,0,0.1C4.3,18.1,2,24.3,2,31
	c0,6.7,2.3,12.9,6.1,17.8c0,0,0,0,0,0.1C8.2,49,8.3,49,8.4,49.1C13.7,55.7,21.8,60,31,60c9.2,0,17.4-4.3,22.7-11
	c0,0,0.1-0.1,0.1-0.1c0,0,0,0,0,0C57.7,43.9,60,37.7,60,31c0-6.7-2.3-12.9-6.1-17.8c0,0,0,0,0,0c0,0-0.1-0.1-0.1-0.1
	C48.4,6.3,40.2,2,31,2z M30,4.1V18c-3.8-0.1-7.5-0.5-10.8-1.3C21.5,9.6,25.6,4.7,30,4.1z M32,4.1c4.4,0.6,8.5,5.5,10.8,12.6
	c-3.3,0.8-7,1.2-10.8,1.3V4.1z M24,4.9c-2.8,2.5-5.1,6.4-6.7,11.2c-2.5-0.7-4.7-1.6-6.7-2.7C14,9.4,18.7,6.4,24,4.9z M38,4.9
	c5.3,1.4,9.9,4.4,13.4,8.5c-1.9,1.1-4.2,2-6.7,2.7C43.2,11.3,40.8,7.4,38,4.9z M9.3,15c2.1,1.2,4.6,2.3,7.4,3.1
	c-0.7,2.4-1.1,5.1-1.4,7.8c-0.1,0.5,0.4,1,0.9,1.1c0,0,0.1,0,0.1,0c0.5,0,0.9-0.4,1-0.9c0.3-2.7,0.7-5.2,1.4-7.5
	C22.1,19.4,26,19.9,30,20v6c0,0.6,0.4,1,1,1s1-0.4,1-1v-6c4-0.1,7.9-0.5,11.4-1.4c0.6,2.3,1.1,4.8,1.4,7.5c0.1,0.5,0.5,1,1.1,0.9
	c0.5-0.1,1-0.5,0.9-1.1c-0.3-2.8-0.8-5.4-1.4-7.8c2.8-0.8,5.2-1.8,7.4-3.1C56,19.5,58,25,58,31s-2,11.5-5.3,16
	c-2.1-1.2-4.6-2.3-7.4-3.1c0.7-2.4,1.1-5.1,1.4-7.8c0.1-0.5-0.4-1-0.9-1.1c-0.5,0-1,0.3-1.1,0.9c-0.3,2.7-0.7,5.2-1.4,7.5
	C39.9,42.6,36,42.1,32,42v-6c0-0.6-0.4-1-1-1s-1,0.4-1,1v6c-4,0.1-7.9,0.5-11.4,1.4c-0.6-2.3-1.1-4.8-1.4-7.5
	c-0.1-0.5-0.5-0.9-1.1-0.9c-0.6,0.1-1,0.5-0.9,1.1c0.3,2.8,0.8,5.4,1.4,7.8c-2.8,0.8-5.2,1.8-7.4,3.1C6,42.5,4,37,4,31
	S6,19.5,9.3,15z M6,29c-0.6,0-1,0.4-1,1v2c0,0.6,0.4,1,1,1s1-0.4,1-1v-2C7,29.4,6.6,29,6,29z M11,29c-0.6,0-1,0.4-1,1v2
	c0,0.6,0.4,1,1,1s1-0.4,1-1v-2C12,29.4,11.6,29,11,29z M16,29c-0.6,0-1,0.4-1,1v2c0,0.6,0.4,1,1,1s1-0.4,1-1v-2
	C17,29.4,16.6,29,16,29z M21,29c-0.6,0-1,0.4-1,1v2c0,0.6,0.4,1,1,1s1-0.4,1-1v-2C22,29.4,21.6,29,21,29z M26,29c-0.6,0-1,0.4-1,1v2
	c0,0.6,0.4,1,1,1s1-0.4,1-1v-2C27,29.4,26.6,29,26,29z M31,29c-0.6,0-1,0.4-1,1v2c0,0.6,0.4,1,1,1s1-0.4,1-1v-2
	C32,29.4,31.6,29,31,29z M36,29c-0.6,0-1,0.4-1,1v2c0,0.6,0.4,1,1,1s1-0.4,1-1v-2C37,29.4,36.6,29,36,29z M41,29c-0.6,0-1,0.4-1,1v2
	c0,0.6,0.4,1,1,1s1-0.4,1-1v-2C42,29.4,41.6,29,41,29z M46,29c-0.6,0-1,0.4-1,1v2c0,0.6,0.4,1,1,1s1-0.4,1-1v-2
	C47,29.4,46.6,29,46,29z M51,29c-0.6,0-1,0.4-1,1v2c0,0.6,0.4,1,1,1s1-0.4,1-1v-2C52,29.4,51.6,29,51,29z M56,29c-0.6,0-1,0.4-1,1v2
	c0,0.6,0.4,1,1,1s1-0.4,1-1v-2C57,29.4,56.6,29,56,29z M30,44v13.9c-4.4-0.6-8.5-5.5-10.8-12.6C22.5,44.5,26.2,44.1,30,44z M32,44
	c3.8,0.1,7.5,0.5,10.8,1.3c-2.4,7.1-6.4,11.9-10.8,12.6V44z M17.2,45.8c1.6,4.9,3.9,8.8,6.7,11.2c-5.3-1.4-9.9-4.4-13.4-8.5
	C12.5,47.5,14.7,46.6,17.2,45.8z M44.8,45.8c2.5,0.7,4.7,1.6,6.7,2.7c-3.5,4-8.1,7-13.4,8.5C40.8,54.6,43.2,50.7,44.8,45.8z"/>
</svg>
