<?xml version="1.0" encoding="utf-8"?>
<!-- Generator: Adobe Illustrator 24.3.0, SVG Export Plug-In . SVG Version: 6.00 Build 0)  -->
<svg version="1.1" id="Layer_1" xmlns="http://www.w3.org/2000/svg" xmlns:xlink="http://www.w3.org/1999/xlink" x="0px" y="0px"
	 viewBox="0 0 80 80" style="enable-background:new 0 0 80 80;" xml:space="preserve">
<style type="text/css">
	.st0{fill:#FFFFFF;}
</style>
<path class="st0" d="M39,12v6c-4.2,0-8.3,0.4-12,0.8c-0.1-1.6-1.4-2.8-3-2.8h-5c-1.6,0-3,1.4-3,3v1.6C12.1,21.4,9.7,22,9.7,22
	l-0.6,0.2L9,22.8c0,0-1,6.5-2,13.9S5,52.3,5,56c0,6.6,5.4,12,12,12c5.1,0,9.4-3.2,11.1-7.7c0.5,0.5,1.2,0.7,1.9,0.7h3
	c1.6,0,3-1.4,3-3v-1h8v1c0,1.6,1.4,3,3,3h3c0.7,0,1.4-0.3,1.9-0.7c1.7,4.5,6,7.7,11.1,7.7c6.6,0,12-5.4,12-12c0-3.7-1-11.9-2-19.3
	c-1-7.4-2-13.9-2-13.9l-0.1-0.6L70.3,22c0,0-2.4-0.7-6.3-1.5V19c0-1.6-1.4-3-3-3h-5c-1.6,0-2.9,1.3-3,2.8c-3.7-0.4-7.8-0.8-12-0.8
	v-6H39z M19,18h5c0.6,0,1,0.4,1,1v0.1c-2.6,0.3-4.9,0.7-7,1.1V19C18,18.4,18.4,18,19,18z M56,18h5c0.6,0,1,0.4,1,1v1.2
	c-2.1-0.4-4.4-0.8-7-1.1V19C55,18.4,55.4,18,56,18z M40,20c15.3,0,28.2,3.6,29.1,3.8c0.1,0.6,1,6.2,1.9,13.2c1,7.4,2,15.7,2,19
	c0,5.5-4.5,10-10,10s-10-4.5-10-10v-1H27v1c0,5.5-4.5,10-10,10S7,61.5,7,56c0-3.3,1-11.6,2-19c1-7,1.8-12.6,1.9-13.2
	C11.8,23.6,24.7,20,40,20z M22,28c-1.1,0-2,0.9-2,2v4h-4c-1.1,0-2,0.9-2,2v2c0,1.1,0.9,2,2,2h4v4c0,1.1,0.9,2,2,2h2c1.1,0,2-0.9,2-2
	v-4h4c1.1,0,2-0.9,2-2v-2c0-1.1-0.9-2-2-2h-4v-4c0-1.1-0.9-2-2-2H22z M58,28c-2.2,0-4,1.8-4,4c0,0.4,0.2,0.7,0.3,1.1
	c-0.1,0.1-0.1,0.1-0.2,0.2C53.7,33.2,53.4,33,53,33c-2.2,0-4,1.8-4,4s1.8,4,4,4c0.4,0,0.7-0.2,1.1-0.3c0.1,0.1,0.1,0.1,0.2,0.2
	C54.2,41.3,54,41.6,54,42c0,2.2,1.8,4,4,4s4-1.8,4-4c0-0.4-0.2-0.7-0.3-1.1c0.1-0.1,0.1-0.1,0.2-0.2c0.3,0.1,0.7,0.3,1.1,0.3
	c2.2,0,4-1.8,4-4s-1.8-4-4-4c-0.4,0-0.7,0.2-1.1,0.3c-0.1-0.1-0.1-0.1-0.2-0.2c0.1-0.3,0.3-0.7,0.3-1.1C62,29.8,60.2,28,58,28z
	 M22,30h2v6h6v2h-6v6h-2v-6h-6v-2h6V30z M58,30c1.1,0,2,0.9,2,2c0,0.3-0.1,0.6-0.2,0.9l-0.4,0.8l0.7,0.5c0.3,0.2,0.5,0.5,0.8,0.8
	l0.5,0.7l0.8-0.4c0.3-0.2,0.6-0.2,0.9-0.2c1.1,0,2,0.9,2,2s-0.9,2-2,2c-0.3,0-0.6-0.1-0.9-0.2l-0.8-0.4l-0.5,0.7
	c-0.2,0.3-0.5,0.5-0.8,0.8l-0.7,0.5l0.4,0.8c0.2,0.3,0.2,0.6,0.2,0.9c0,1.1-0.9,2-2,2s-2-0.9-2-2c0-0.3,0.1-0.6,0.2-0.9l0.4-0.8
	l-0.7-0.5c-0.3-0.2-0.5-0.5-0.8-0.8l-0.5-0.7l-0.8,0.4C53.6,38.9,53.3,39,53,39c-1.1,0-2-0.9-2-2s0.9-2,2-2c0.3,0,0.6,0.1,0.9,0.2
	l0.8,0.4l0.5-0.7c0.2-0.3,0.5-0.5,0.8-0.8l0.7-0.5l-0.4-0.8C56.1,32.6,56,32.3,56,32C56,30.9,56.9,30,58,30z M24,51
	c-0.6,0-1,0.4-1,1s0.4,1,1,1s1-0.4,1-1S24.6,51,24,51z M28,51c-0.6,0-1,0.4-1,1s0.4,1,1,1s1-0.4,1-1S28.6,51,28,51z M32,51
	c-0.6,0-1,0.4-1,1s0.4,1,1,1s1-0.4,1-1S32.6,51,32,51z M36,51c-0.6,0-1,0.4-1,1s0.4,1,1,1s1-0.4,1-1S36.6,51,36,51z M40,51
	c-0.6,0-1,0.4-1,1s0.4,1,1,1s1-0.4,1-1S40.6,51,40,51z M44,51c-0.6,0-1,0.4-1,1s0.4,1,1,1s1-0.4,1-1S44.6,51,44,51z M48,51
	c-0.6,0-1,0.4-1,1s0.4,1,1,1s1-0.4,1-1S48.6,51,48,51z M52,51c-0.6,0-1,0.4-1,1s0.4,1,1,1s1-0.4,1-1S52.6,51,52,51z M56,51
	c-0.6,0-1,0.4-1,1s0.4,1,1,1s1-0.4,1-1S56.6,51,56,51z M10,55c-0.6,0-1,0.4-1,1s0.4,1,1,1s1-0.4,1-1S10.6,55,10,55z M24,55
	c-0.6,0-1,0.4-1,1s0.4,1,1,1s1-0.4,1-1S24.6,55,24,55z M56,55c-0.6,0-1,0.4-1,1s0.4,1,1,1s1-0.4,1-1S56.6,55,56,55z M70,55
	c-0.6,0-1,0.4-1,1s0.4,1,1,1s1-0.4,1-1S70.6,55,70,55z M29,57h5v1c0,0.6-0.4,1-1,1h-3c-0.6,0-1-0.4-1-1V57z M46,57h5v1
	c0,0.6-0.4,1-1,1h-3c-0.6,0-1-0.4-1-1V57z M10.9,58.5c-0.2,0-0.3,0.1-0.5,0.1c-0.5,0.3-0.6,0.9-0.4,1.4c0.3,0.5,0.9,0.6,1.4,0.4
	c0.5-0.3,0.6-0.9,0.4-1.4c0,0,0,0,0,0C11.6,58.7,11.3,58.5,10.9,58.5z M56.9,58.5c-0.2,0-0.3,0.1-0.5,0.1c-0.5,0.3-0.6,0.9-0.4,1.4
	c0.3,0.5,0.9,0.6,1.4,0.4c0.5-0.3,0.6-0.9,0.4-1.4c0,0,0,0,0,0C57.6,58.7,57.3,58.5,56.9,58.5z M23,58.5c-0.3,0-0.7,0.2-0.8,0.5
	c-0.3,0.5-0.1,1.1,0.4,1.4c0.5,0.3,1.1,0.1,1.4-0.4c0.3-0.5,0.1-1.1-0.4-1.4c0,0,0,0,0,0C23.4,58.5,23.2,58.5,23,58.5z M69,58.5
	c-0.3,0-0.6,0.2-0.8,0.5c-0.3,0.5-0.1,1.1,0.4,1.4c0.5,0.3,1.1,0.1,1.4-0.4c0,0,0,0,0,0c0.3-0.5,0.1-1.1-0.4-1.4
	C69.4,58.5,69.2,58.5,69,58.5z M20.5,61.1c-0.2,0-0.3,0.1-0.5,0.1c-0.5,0.3-0.6,0.9-0.4,1.4c0.3,0.5,0.9,0.6,1.4,0.4c0,0,0,0,0,0
	c0.5-0.3,0.6-0.9,0.4-1.4C21.2,61.2,20.8,61.1,20.5,61.1z M66.5,61.1c-0.2,0-0.3,0.1-0.5,0.1c-0.5,0.3-0.6,0.9-0.4,1.4
	c0.3,0.5,0.9,0.6,1.4,0.4c0.5-0.3,0.6-0.9,0.4-1.4C67.2,61.2,66.8,61.1,66.5,61.1z M13.5,61.1c-0.3,0-0.6,0.2-0.8,0.5
	c-0.3,0.5-0.1,1.1,0.4,1.4c0,0,0,0,0,0c0.5,0.3,1.1,0.1,1.4-0.4c0,0,0,0,0,0c0.3-0.5,0.1-1.1-0.4-1.4C13.8,61.1,13.6,61.1,13.5,61.1
	z M59.5,61.1c-0.3,0-0.6,0.2-0.8,0.5c-0.3,0.5-0.1,1.1,0.4,1.4c0,0,0,0,0,0c0.5,0.3,1.1,0.1,1.4-0.4c0,0,0,0,0,0
	c0.3-0.5,0.1-1.1-0.4-1.4C59.8,61.1,59.6,61.1,59.5,61.1z M17,62c-0.6,0-1,0.4-1,1s0.4,1,1,1s1-0.4,1-1S17.6,62,17,62z M63,62
	c-0.6,0-1,0.4-1,1s0.4,1,1,1s1-0.4,1-1S63.6,62,63,62z"/>
</svg>
