<?xml version="1.0" encoding="utf-8"?>
<!-- Generator: Adobe Illustrator 24.3.0, SVG Export Plug-In . SVG Version: 6.00 Build 0)  -->
<svg version="1.1" id="Layer_1" xmlns="http://www.w3.org/2000/svg" xmlns:xlink="http://www.w3.org/1999/xlink" x="0px" y="0px"
	 viewBox="0 0 64 64" style="enable-background:new 0 0 64 64;" xml:space="preserve">
<style type="text/css">
	.st0{fill:#FFFFFF;}
</style>
<path class="st0" d="M17.9,1c-0.1,0-0.3,0.1-0.4,0.1C17,1.4,16.9,2,17.1,2.5l2.2,4c-3.6,2.9-6.1,7.1-7,11.9
	c-0.2,0.9,0.1,1.8,0.7,2.5c0.6,0.7,1.4,1.1,2.3,1.1h33.4c0.9,0,1.7-0.4,2.3-1.1c0.6-0.7,0.8-1.6,0.7-2.5c-0.9-4.8-3.4-9-7-11.9
	l2.2-4C47.1,2,47,1.4,46.5,1.1C46,0.9,45.4,1,45.1,1.5L43,5.3C39.8,3.2,36,2,32,2s-7.8,1.2-11,3.3l-2.1-3.8C18.7,1.2,18.3,1,17.9,1z
	 M32,4c8.7,0,16.2,6.2,17.7,14.8c0.1,0.3,0,0.6-0.2,0.8c-0.1,0.1-0.4,0.4-0.8,0.4H15.3c-0.4,0-0.7-0.2-0.8-0.4
	c-0.2-0.2-0.3-0.5-0.2-0.8C15.8,10.2,23.3,4,32,4z M24,10c-1.7,0-3,1.3-3,3s1.3,3,3,3s3-1.3,3-3S25.7,10,24,10z M40,10
	c-1.7,0-3,1.3-3,3s1.3,3,3,3s3-1.3,3-3S41.7,10,40,10z M24,11.7c0.7,0,1.3,0.6,1.3,1.3s-0.6,1.3-1.3,1.3s-1.3-0.6-1.3-1.3
	S23.3,11.7,24,11.7z M40,11.8c0.7,0,1.2,0.6,1.2,1.2s-0.6,1.2-1.2,1.2s-1.2-0.6-1.2-1.2S39.3,11.8,40,11.8z M6,22c-2.2,0-4,1.8-4,4
	v16c0,2.2,1.8,4,4,4s4-1.8,4-4V26C10,23.8,8.2,22,6,22z M58,22c-2.2,0-4,1.8-4,4v16c0,2.2,1.8,4,4,4s4-1.8,4-4V26
	C62,23.8,60.2,22,58,22z M6,24c1.1,0,2,0.9,2,2v16c0,1.1-0.9,2-2,2s-2-0.9-2-2V26C4,24.9,4.9,24,6,24z M15,24c-1.7,0-3,1.3-3,3v22
	c0,1.7,1.3,3,3,3h3v7c0,2.8,2.2,5,5,5s5-2.2,5-5v-7h8v7c0,2.8,2.2,5,5,5s5-2.2,5-5v-7h3c1.7,0,3-1.3,3-3V27c0-1.7-1.3-3-3-3H15z
	 M58,24c1.1,0,2,0.9,2,2v16c0,1.1-0.9,2-2,2s-2-0.9-2-2V26C56,24.9,56.9,24,58,24z M15,26h34c0.6,0,1,0.4,1,1v22c0,0.6-0.4,1-1,1h-4
	c-0.6,0-1,0.4-1,1v8c0,1.7-1.3,3-3,3s-3-1.3-3-3v-8c0-0.6-0.4-1-1-1H27c-0.6,0-1,0.4-1,1v8c0,1.7-1.3,3-3,3s-3-1.3-3-3v-8
	c0-0.6-0.4-1-1-1h-4c-0.6,0-1-0.4-1-1V27C14,26.4,14.4,26,15,26z M17,28c-0.6,0-1,0.4-1,1v2c0,0.6,0.4,1,1,1s1-0.4,1-1v-2
	C18,28.4,17.6,28,17,28z M22,28c-0.6,0-1,0.4-1,1v2c0,0.6,0.4,1,1,1s1-0.4,1-1v-2C23,28.4,22.6,28,22,28z M27,28c-0.6,0-1,0.4-1,1v2
	c0,0.6,0.4,1,1,1s1-0.4,1-1v-2C28,28.4,27.6,28,27,28z M32,28c-0.6,0-1,0.4-1,1v2c0,0.6,0.4,1,1,1c0.6,0,1-0.4,1-1v-2
	C33,28.4,32.6,28,32,28z M37,28c-0.6,0-1,0.4-1,1v2c0,0.6,0.4,1,1,1s1-0.4,1-1v-2C38,28.4,37.6,28,37,28z M42,28c-0.6,0-1,0.4-1,1v2
	c0,0.6,0.4,1,1,1s1-0.4,1-1v-2C43,28.4,42.6,28,42,28z M47,28c-0.6,0-1,0.4-1,1v2c0,0.6,0.4,1,1,1s1-0.4,1-1v-2
	C48,28.4,47.6,28,47,28z M17,46c-0.6,0-1,0.4-1,1s0.4,1,1,1h22c0.6,0,1-0.4,1-1s-0.4-1-1-1H17z M43,46c-0.6,0-1,0.4-1,1s0.4,1,1,1h4
	c0.6,0,1-0.4,1-1s-0.4-1-1-1H43z"/>
</svg>
